<svg width="24" height="24" viewBox="0 0 24 24" fill="none" xmlns="http://www.w3.org/2000/svg">
  <g transform="translate(0 1.6653)">
    <path d="M23.8493 16.1943C20.1229 19.4689 15.8577 20.6694 11.8599 20.6694C7.86207 20.6694 3.14319 19.2417 0 16.1913V4.4905C3.07838 1.58996 7.9209 0 11.9217 0C16.6336 0 20.9006 1.84954 23.8464 4.4905V16.1943H23.8493ZM23.3692 10.3229C20.6144 6.06367 15.8726 4.1858 11.8599 4.1858C7.84713 4.1858 3.56455 5.80356 0.412329 10.32C3.32254 14.4925 7.12831 16.5643 11.8599 16.4546C17.9214 16.314 20.5765 13.758 23.3692 10.3229ZM11.8599 4.33198C8.60581 4.33198 5.93288 7.0721 5.89753 10.3185C9.10951 10.3125 11.8599 7.72265 11.8599 4.33198C11.8599 7.72265 14.6102 10.3125 17.8222 10.3185C17.7864 7.02803 15.1348 4.33198 11.8599 4.33198ZM11.8599 16.314C11.8599 12.8494 9.10951 10.3245 5.89753 10.3185C5.93288 13.5649 8.60581 16.314 11.8599 16.314C15.1139 16.314 17.7869 13.5649 17.8222 10.3185C14.6102 10.3245 11.8599 12.8494 11.8599 16.314Z" fill="#61B8BC"/>
  </g>
</svg>
