<svg width="288" height="288" viewBox="0 0 288 288" fill="none" xmlns="http://www.w3.org/2000/svg">
<rect width="288" height="288" rx="144" fill="#08191C"/>
<path fill-rule="evenodd" clip-rule="evenodd" d="M143.98 73C175.591 73.0001 204.218 85.7066 223.98 103.85V184.256H224C199 206.752 170.385 215 143.565 215C116.745 215 85.0869 205.191 64 184.235V103.85C84.6522 83.9232 117.14 73 143.98 73ZM125.037 103.36C90.9741 112.8 65.7323 143.997 65.7297 144C65.7297 144 90.9724 175.199 125.037 184.639C110.413 177.35 100.324 161.892 100.324 144C100.324 126.108 110.413 110.65 125.037 103.36ZM162.962 103.36C177.586 110.649 187.676 126.108 187.676 144C187.676 161.891 177.587 177.349 162.963 184.639C197.023 175.2 222.263 144.009 222.27 144C222.262 143.99 197.022 112.798 162.962 103.36ZM143.252 107.831C140.747 126.857 126.358 141.216 108.973 143.604V144.297C126.4 146.638 140.817 160.768 143.27 180.17C143.516 180.165 143.764 180.159 144.01 180.152C146.504 160.491 161.283 146.249 179.027 144.208V143.696C161.32 141.611 146.565 127.12 144.025 107.831C143.767 107.83 143.51 107.83 143.252 107.831Z" fill="#71B9BC"/>
</svg>
